<?xml version="1.0" encoding="UTF-8"?> <svg xmlns="http://www.w3.org/2000/svg" viewBox="0 0 217.5 59.37"> <defs> <style>.cls-1{fill:#fff;}.cls-2{fill:#656a72;}.cls-3{fill:#31353d;}</style> </defs> <title>LOGO_on-dark</title> <g id="Слой_2" data-name="Слой 2"> <g id="Слой_1-2" data-name="Слой 1"> <polygon class="cls-1" points="2.36 45.2 17.64 45.2 17.64 52.27 22.8 57.83 105.25 57.83 105.25 44.33 183.45 44.33 183.45 57.83 215.71 57.83 215.71 2.06 7.52 2.06 2.56 7.02 2.36 45.2"></polygon> <rect class="cls-2" x="105.67" y="44.39" width="76.87" height="12.37"></rect> <rect class="cls-3" x="16.94" y="13.97" width="2.97" height="4.68"></rect> <rect class="cls-3" x="103.77" y="13.97" width="2.97" height="4.68"></rect> <path class="cls-3" d="M10.54,0h-.32a10.35,10.35,0,0,0-7.6,2.74A9.27,9.27,0,0,0,0,9.56V47.14H15.77v2.67a9.23,9.23,0,0,0,2.62,6.82A10.35,10.35,0,0,0,26,59.37H217.5V0Zm190,4.14h12.8V43h-12.8Zm-78.19,0h12.8V13l3.76-8.85h12.8l-8.29,19.43L152.14,43h-12.8l-4.17-9.28V43h-12.8ZM60,33.17,73.62,14H60V4.14h28.2V14L75.48,33.17H88.21V43H60ZM57,55.23H26c-4.39,0-6.08-2.29-6.08-5.42V28.49h-3V43H4.14V9.56c0-3.13,1.7-5.42,6.08-5.42H26.63c4.38,0,6.08,2.29,6.08,5.42V45.4H57ZM57,14H48.6v4.69H57v9.83H48.6v4.68H57V43H35.8V4.14H57Zm59,41.26-3.26-2-3.26,2,.86-3.71L107.51,49l3.8-.33,1.48-3.49,1.48,3.49,3.8.33-2.88,2.5Zm3.48-43.67V43h-12.8V28.49h-3V49.81c0,3.13-1.7,5.42-6.08,5.42H60V45.4H91V9.56c0-3.13,1.69-5.42,6.08-5.42h16.41c4.38,0,6.07,2.29,6.07,5.42Zm9.18,43.67-3.26-2-3.27,2,.87-3.71L120.17,49l3.79-.33,1.49-3.49,1.48,3.49,3.8.33-2.88,2.5Zm12.66,0-3.27-2-3.26,2,.87-3.71L132.83,49l3.79-.33,1.48-3.49,1.49,3.49,3.79.33-2.88,2.5Zm12.66,0-3.27-2-3.26,2,.86-3.71L145.48,49l3.8-.33,1.48-3.49,1.49,3.49L156,49l-2.88,2.5Zm12.65,0-3.26-2-3.26,2,.86-3.71L158.14,49l3.8-.33,1.48-3.49,1.48,3.49,3.8.33-2.88,2.5Zm12.66,0-3.26-2-3.26,2,.86-3.71L170.8,49l3.8-.33,1.48-3.49,1.48,3.49,3.8.33-2.88,2.5Zm34,0H191.2c-4.38,0-6.07-2.29-6.07-5.42V14h-3V43h-12.8V14h-3V43h-12.8V4.14h12.8V6.47s1.83-2.33,8.51-2.33c3.82,0,5.6,1.68,6.43,3.12h0s1.07-3.12,8.12-3.12,8.53,4.09,8.53,6.11V45.4h15.43Z"></path> </g> </g> </svg> 