<?xml version="1.0" encoding="iso-8859-1"?>
<!-- Generator: Adobe Illustrator 19.0.0, SVG Export Plug-In . SVG Version: 6.00 Build 0)  -->
<svg version="1.1" id="Capa_1" xmlns="http://www.w3.org/2000/svg" xmlns:xlink="http://www.w3.org/1999/xlink" x="0px" y="0px"
	 viewBox="0 0 512 512" style="enable-background:new 0 0 512 512;" xml:space="preserve">
<g>
	<g>
		<g>
			<path d="M358.042,257.621c-2.771-2.781-6.896-3.802-10.646-2.667c-2.333,0.708-4.25,1.042-6.063,1.042
				c-11.771,0-21.333-9.573-21.333-21.333c0-1.771,0.333-3.719,1.063-6.125c1.104-3.75,0.083-7.823-2.688-10.594l-15.292-15.281
				c-13.75-13.75-37.75-13.75-51.5,0l-0.917,0.917L128,80.913V65.705c0-11.448-6.167-22.094-16.125-27.781L47.958,1.403
				c-4.125-2.375-9.396-1.677-12.833,1.719l-32,32c-3.396,3.396-4.104,8.656-1.729,12.833l36.542,63.938
				c5.688,9.927,16.333,16.104,27.771,16.104h15.208l122.661,122.661l-0.911,0.911C195.792,258.444,192,267.59,192,277.33
				c0,9.729,3.792,18.875,10.667,25.75l15.292,15.281c2.792,2.781,6.875,3.802,10.604,2.677c2.375-0.708,4.313-1.042,6.104-1.042
				c11.771,0,21.333,9.573,21.333,21.333c0,1.833-0.333,3.75-1.021,6.031c-1.167,3.781-0.146,7.885,2.646,10.677l135.75,135.75
				c11.75,11.74,27.375,18.208,43.958,18.208c16.583,0,32.208-6.469,43.958-18.208l12.5-12.5
				C505.542,469.559,512,453.944,512,437.33c0-16.615-6.458-32.229-18.208-43.958L358.042,257.621z"/>
			<path d="M279.333,170.882c14.792,0.51,28.583,6.438,38.833,16.708l15.292,15.271c5.521,5.51,8.833,12.865,9.313,20.688
				c0.333,5.323,4.521,9.583,9.833,9.99c4.125,0.313,8.188,1.396,12.083,3.24c1.438,0.667,2.979,1.01,4.542,1.01
				c0.729,0,1.479-0.073,2.208-0.229c8.271-1.75,15.583-2.604,22.813-2.604C459.125,235.569,512,182.465,512,117.621
				c0-18.802-4.771-37.292-14.188-54.948c-1.771-3.313-5.146-5.448-8.896-5.635c-3.792-0.104-7.313,1.625-9.396,4.74l-30.563,45.854
				c-4.167,6.25-11.146,9.99-18.667,9.99h-5.271c-20.542,0-38.729-12.323-46.354-31.396c-2.583-6.458-2-13.885,1.583-19.865
				l29.604-49.313c1.917-3.198,1.146-7.281-0.604-10.583c-1.729-3.302-5.958-5.552-9.688-5.76c-1.625-0.229-3.229-0.417-4.896-0.417
				c-64.688,0-117.333,52.635-117.333,117.771c0.042,13.094-2.479,25.906-7.5,38.104c-1.333,3.229-1,6.906,0.896,9.844
				C272.625,168.944,275.833,170.767,279.333,170.882z"/>
			<path d="M221.375,342.101c-7.333-0.979-13.896-4.052-18.5-8.656l-15.292-15.26c-8.146-8.177-13.625-18.406-15.833-29.594
				c-0.75-3.865-3.583-7-7.354-8.146c-3.771-1.135-7.854-0.125-10.646,2.667L15.625,421.236C5.542,431.309,0,444.705,0,458.955
				c0,15.604,6.833,30.396,18.729,40.573c9.563,8.177,21.521,12.198,33.688,12.198c14.521,0,29.313-5.74,40.542-16.979
				L227.5,360.215c2.875-2.865,3.854-7.115,2.563-10.958S225.396,342.642,221.375,342.101z"/>
		</g>
	</g>
</g>
<g>
</g>
<g>
</g>
<g>
</g>
<g>
</g>
<g>
</g>
<g>
</g>
<g>
</g>
<g>
</g>
<g>
</g>
<g>
</g>
<g>
</g>
<g>
</g>
<g>
</g>
<g>
</g>
<g>
</g>
</svg>
