<?xml version="1.0" encoding="iso-8859-1"?>
<!-- Generator: Adobe Illustrator 19.0.0, SVG Export Plug-In . SVG Version: 6.00 Build 0)  -->
<svg version="1.1" id="Capa_1" xmlns="http://www.w3.org/2000/svg" xmlns:xlink="http://www.w3.org/1999/xlink" x="0px" y="0px"
	 viewBox="0 0 512 512" style="enable-background:new 0 0 512 512;" xml:space="preserve">
<g>
	<g>
		<path d="M511.824,250.05c-0.146-6.199-4.09-11.67-9.925-13.766c-29.457-10.581-51.244-38.312-50.638-71.53
			c0.083-4.404-1.774-8.621-5.078-11.533c-4.017-3.542-8.352-4.138-13.355-3.404c-50.519,7.422-96.304-29.455-100.848-80.934
			c-0.867-9.829-10.849-16.166-20.117-12.76C302.935,59.405,294.511,61,286.11,61c-31.604,0-57.765-26.956-68.696-52
			c-2.872-6.582-10.004-10.2-17.015-8.64C85.97,25.898,0.11,134.828,0.11,256c0,140.968,115.049,256,256,256
			C396.544,512,515.124,396.693,511.824,250.05z M256.11,482c-124.617,0-226-101.383-226-226
			c0-102.544,70.418-196.535,165.57-223.511C213.104,63.169,245.766,91,286.11,91c6.215,0,12.517-0.624,18.859-1.863
			C317.704,142.223,365.03,181,421.11,181c0.375,0,0.747-0.003,1.118-0.01c5.138,34.255,27.618,64.291,59.838,79.51
			C479.656,383.046,379.22,482,256.11,482z"/>
	</g>
</g>
<g>
	<g>
		<path d="M166.11,301c-24.813,0-45,20.187-45,45s20.186,45,45,45c24.813,0,45-20.187,45-45S190.923,301,166.11,301z M166.11,361
			c-8.271,0-15-6.729-15-15s6.728-15,15-15c8.271,0,15,6.729,15,15S174.381,361,166.11,361z"/>
	</g>
</g>
<g>
	<g>
		<path d="M316.11,211c-24.813,0-45,20.187-45,45c0,24.813,20.186,45,45,45c24.813,0,45-20.187,45-45S340.923,211,316.11,211z
			 M316.11,271c-8.271,0-15-6.729-15-15s6.728-15,15-15c8.271,0,15,6.729,15,15S324.381,271,316.11,271z"/>
	</g>
</g>
<g>
	<g>
		<path d="M301.11,361c-16.542,0-30,13.458-30,30s13.458,30,30,30s30-13.458,30-30S317.652,361,301.11,361z"/>
	</g>
</g>
<g>
	<g>
		<path d="M181.11,151c-16.542,0-30,13.458-30,30s13.458,30,30,30c16.542,0,30-13.458,30-30S197.652,151,181.11,151z"/>
	</g>
</g>
<g>
	<g>
		<circle cx="405.36" cy="317.13" r="15"/>
	</g>
</g>
<g>
	<g>
		<circle cx="105.36" cy="257.13" r="15"/>
	</g>
</g>
<g>
</g>
<g>
</g>
<g>
</g>
<g>
</g>
<g>
</g>
<g>
</g>
<g>
</g>
<g>
</g>
<g>
</g>
<g>
</g>
<g>
</g>
<g>
</g>
<g>
</g>
<g>
</g>
<g>
</g>
</svg>
