<?xml version="1.0" encoding="iso-8859-1"?>
<!-- Generator: Adobe Illustrator 19.0.0, SVG Export Plug-In . SVG Version: 6.00 Build 0)  -->
<svg version="1.1" id="Capa_1" xmlns="http://www.w3.org/2000/svg" xmlns:xlink="http://www.w3.org/1999/xlink" x="0px" y="0px"
	 viewBox="0 0 428.32 428.32" style="enable-background:new 0 0 428.32 428.32;" xml:space="preserve">
<g>
	<g>
		<path d="M370.968,291.472h-26.624V78.48c0-31.744-25.6-57.344-57.344-57.344H54.552c-1.024,0-2.048,0-3.072,0.512
			C19.736,25.232-2.792,53.392,0.28,85.136c3.072,26.624,24.064,48.128,51.2,51.2c1.024,0,2.048,0.512,3.072,0.512h3.072V349.84
			v0.512c0.512,31.232,26.112,56.832,57.344,56.832h251.904h1.536h2.56c31.744,0,57.344-25.6,57.344-57.344
			C428.824,317.072,402.712,291.472,370.968,291.472z M57.624,105.616v-0.512C42.776,105.104,31,93.328,31,78.48
			c0-14.848,11.776-26.624,26.624-26.624h178.688c-8.704,16.896-8.704,36.864,0,53.76H57.624z M303.384,315.024H93.464v-30.72
			h209.92V315.024z M303.384,253.584H93.464v-30.72h209.92V253.584z M303.384,192.144H93.464v-30.72h209.92V192.144z M371.48,375.44
			c-14.848,0-26.624-11.776-26.624-26.624v-26.624h26.624c14.848,0,26.624,11.776,26.624,26.624
			C398.104,363.664,386.328,375.44,371.48,375.44z"/>
	</g>
</g>
<g>
</g>
<g>
</g>
<g>
</g>
<g>
</g>
<g>
</g>
<g>
</g>
<g>
</g>
<g>
</g>
<g>
</g>
<g>
</g>
<g>
</g>
<g>
</g>
<g>
</g>
<g>
</g>
<g>
</g>
</svg>
